<?xml version="1.0" encoding="utf-8"?>
<!-- Generator: Adobe Illustrator 23.0.5, SVG Export Plug-In . SVG Version: 6.00 Build 0)  -->
<svg version="1.1" id="Layer_1" xmlns="http://www.w3.org/2000/svg" xmlns:xlink="http://www.w3.org/1999/xlink" x="0px" y="0px"
	 viewBox="0 0 802.51 361.07" style="enable-background:new 0 0 802.51 361.07;" xml:space="preserve">
<style type="text/css">
	.st0{fill:#4D4D4F;}
	.st1{fill:#9C9EA1;}
	.st2{fill:#EF4E23;}
</style>
<g id="XMLID_782_">
	<g id="XMLID_792_">
		<g>
			<g id="XMLID_267_">
				<path id="XMLID_282_" class="st0" d="M376.25,107.34H388l6.59,33.35c0.42,1.95,0.59,3.22,0.76,4.4
					c0.16-1.18,0.34-2.46,0.84-4.49l8.11-33.27h9.88l8.28,33.27c0.51,2.03,0.68,3.31,0.84,4.49c0.17-1.18,0.34-2.46,0.77-4.4
					l6.58-33.35h11.66l-12.76,59.27h-10.64l-8.96-34.89c-0.42-1.61-0.68-3.05-0.84-4.49c-0.17,1.44-0.42,2.88-0.85,4.4l-8.7,34.97
					h-10.64L376.25,107.34z"/>
				<path id="XMLID_279_" class="st0" d="M479.11,154.33H456.3l-4.56,12.28h-12.25l22.64-59.27h11.15l22.65,59.27h-12.25
					L479.11,154.33z M469.56,128.51c-0.59-1.52-1.43-3.81-1.85-5.34c-0.42,1.52-1.27,3.81-1.86,5.34l-5.82,15.41h15.37
					L469.56,128.51z"/>
				<path id="XMLID_276_" class="st0" d="M500.28,107.34h27.46c14.87,0,19.77,8.81,19.77,18.54c0,6.69-3.81,14.4-11.49,17.11
					l11.49,23.63h-12.85l-11.07-22.1h-11.91v22.1h-11.41V107.34z M527.9,133.67c5.83,0,7.77-3.72,7.77-7.79
					c0-3.72-1.69-7.7-7.77-7.7h-16.22v15.49H527.9z"/>
				<path id="XMLID_273_" class="st0" d="M574.6,107.34c20.69,0,28.63,14.9,28.63,29.63c0,13.54-7.26,29.63-28.98,29.63h-19.59
					v-59.27H574.6z M591.4,136.98c0-9.23-4.48-18.8-14.86-18.8h-10.48v37.59h9.55C587.26,155.77,591.4,145.7,591.4,136.98z"/>
				<path id="XMLID_270_" class="st0" d="M642.56,154.33h-22.81l-4.56,12.28h-12.25l22.64-59.27h11.15l22.64,59.27h-12.25
					L642.56,154.33z M633.02,128.51c-0.59-1.52-1.43-3.81-1.85-5.34c-0.42,1.52-1.27,3.81-1.86,5.34l-5.82,15.41h15.37
					L633.02,128.51z"/>
				<path id="XMLID_268_" class="st0" d="M700.74,166.61l-23.49-34.55c-0.67-1.01-1.77-3.05-2.44-4.49
					c0.16,1.44,0.25,3.21,0.25,4.49v34.55h-11.32v-59.27h10.72l22.89,34.12c0.68,1.1,1.78,3.05,2.45,4.49
					c-0.16-1.36-0.25-3.39-0.25-4.49v-34.12h11.32v59.27H700.74z"/>
			</g>
			<g id="XMLID_249_">
				<path id="XMLID_265_" class="st1" d="M404.55,248.29h-11.4v-48.26h-16.9v-11h45.2v11h-16.9V248.29z"/>
				<path id="XMLID_263_" class="st1" d="M426.92,189.02h40.38v10.84h-28.98v12.44h17.06v10.84h-17.06v14.31h30.75v10.84h-42.15
					V189.02z"/>
				<path id="XMLID_261_" class="st1" d="M471.58,218.66c0-13.55,6.5-30.57,24.83-30.57c11.32,0,18.42,6.68,21.12,13.38l-10.22,4.65
					c-2.96-4.49-5.74-7.02-10.9-7.02c-9.88,0-13.01,10.84-13.01,19.56c0,9.14,3.89,19.56,13.01,19.56c4.82,0,8.03-3.14,10.73-7.63
					l10.47,3.98c-3.89,8.64-10.47,14.65-21.2,14.65C477.91,249.22,471.58,233.31,471.58,218.66z"/>
				<path id="XMLID_259_" class="st1" d="M559.66,223.23h-24.75v25.07h-11.4v-59.27h11.4v23.36h24.75v-23.36h11.4v59.27h-11.4
					V223.23z"/>
				<path id="XMLID_257_" class="st1" d="M597.21,189.02h11.41v48.26h28.55v11h-39.96V189.02z"/>
				<path id="XMLID_255_" class="st1" d="M658.69,248.29h-11.4v-48.26h-16.9v-11h45.2v11h-16.9V248.29z"/>
				<path id="XMLID_252_" class="st1" d="M700.99,189.02c20.69,0,28.63,14.9,28.63,29.63c0,13.54-7.26,29.63-28.98,29.63h-19.6
					v-59.27H700.99z M717.8,218.66c0-9.23-4.48-18.8-14.86-18.8h-10.48v37.59H702C713.66,237.45,717.8,227.38,717.8,218.66z"/>
				<path id="XMLID_250_" class="st1" d="M733.06,242.36c0-3.9,3.04-7.03,7.1-7.03c4.06,0,7.18,3.13,7.18,7.03
					c0,3.98-3.12,6.94-7.18,6.94C736.1,249.31,733.06,246.34,733.06,242.36z"/>
			</g>
		</g>
	</g>
	<g id="XMLID_783_">
		<path id="XMLID_789_" class="st0" d="M283.04,74.51c-13.54,23.95-27.42,47.71-41.21,71.52c-1.43,2.47-3.04,4.84-5.05,8.01
			c-2.15-3.62-3.58-5.98-4.96-8.37c-0.88-1.53-1.77-3.06-2.65-4.59c-9.68-16.76-19.37-33.5-29.11-50.22
			c-2.13-3.65-4.26-7.31-6.4-10.96c-20.3-0.01-39.91-0.81-58.53-2.27c11.9,21.04,23.87,42.21,35.9,63.5
			c9.64,17.05,19.33,34.18,29.06,51.39c10.45,18.48,20.94,37.03,31.5,55.71c2.34,4.14,8.32,4.13,10.66,0
			c35.4-62.62,70.15-124.08,105.3-186.27C329.12,67.16,307.28,71.44,283.04,74.51z"/>
		<path id="XMLID_786_" class="st0" d="M54.74,65.71c33.83,59.83,68.21,120.62,103.2,182.5c2.34,4.14,8.32,4.13,10.66,0
			c8.02-14.19,15.99-28.28,23.95-42.37L117.65,76.02C94.52,73.59,73.29,70.08,54.74,65.71z"/>
		<path id="XMLID_785_" class="st2" d="M208.07,61.58l28.83,49.97c10.03-17.74,20.06-35.49,30.12-53.28
			C248.41,60.1,228.63,61.24,208.07,61.58z"/>
		<path id="XMLID_784_" class="st2" d="M132.1,221.85c-14.96,8.66-29.6,17.81-41.38,30.73c-8.03,8.81-15.87,18.46-11.4,31.26
			c4.3,12.31,15.87,15.55,27.41,17.41c28.89,4.65,57.15-0.01,85.03-7.04c43.39-10.93,84.69-26.89,121.13-53.68
			c9.7-7.13,18.65-15.14,24.45-25.95c7.59-14.16,3.35-26.2-11.41-32.73c-12.29-5.44-25.4-5.55-38.49-5.56
			c-1.51,2.82-1.48,5.79-0.86,8.82c7.84-0.26,15.58,0.35,22.98,3.14c10.48,3.95,12.58,9.83,6.84,19.37
			c-5.29,8.79-13.1,15.16-21.3,20.93c-37.68,26.5-79.7,42.43-124.79,50.54c-19.71,3.54-39.59,6.68-59.55,2.14
			c-16.15-3.68-18.84-12.05-8.14-24.88c9-10.8,20.15-19.08,32.39-25.91c0.83-1.85,0.57-3.34,0.21-4.8
			C133.93,222.39,133.18,222.44,132.1,221.85z"/>
	</g>
</g>
</svg>
