<?xml version="1.0" encoding="utf-8"?>
<!-- Generator: Adobe Illustrator 23.0.5, SVG Export Plug-In . SVG Version: 6.00 Build 0)  -->
<svg version="1.1" id="Layer_1" xmlns="http://www.w3.org/2000/svg" xmlns:xlink="http://www.w3.org/1999/xlink" x="0px" y="0px"
	 viewBox="0 0 420.69 361.07" style="enable-background:new 0 0 420.69 361.07;" xml:space="preserve">
<style type="text/css">
	.st0{fill:#4D4D4F;}
	.st1{fill:#EF4E23;}
</style>
<g id="XMLID_782_">
	<g id="XMLID_783_">
		<path id="XMLID_789_" class="st0" d="M292.24,74.34c-13.54,23.95-27.42,47.71-41.21,71.52c-1.43,2.47-3.04,4.84-5.05,8.01
			c-2.15-3.62-3.58-5.98-4.96-8.37c-0.88-1.53-1.77-3.06-2.65-4.59c-9.68-16.76-19.37-33.5-29.11-50.22
			c-2.13-3.65-4.26-7.31-6.4-10.96c-20.3-0.01-39.91-0.81-58.53-2.27c11.9,21.04,23.87,42.21,35.9,63.5
			c9.64,17.05,19.33,34.18,29.06,51.39c10.45,18.48,20.94,37.03,31.5,55.71c2.34,4.14,8.32,4.13,10.66,0
			c35.4-62.62,70.15-124.08,105.3-186.27C338.32,67,316.48,71.27,292.24,74.34z"/>
		<path id="XMLID_786_" class="st0" d="M63.94,65.55c33.83,59.83,68.21,120.62,103.2,182.5c2.34,4.14,8.32,4.13,10.66,0
			c8.02-14.19,15.99-28.28,23.95-42.37L126.86,75.85C103.72,73.42,82.49,69.92,63.94,65.55z"/>
		<path id="XMLID_785_" class="st1" d="M217.27,61.42l28.83,49.97c10.03-17.74,20.06-35.49,30.12-53.28
			C257.61,59.94,237.83,61.08,217.27,61.42z"/>
		<path id="XMLID_784_" class="st1" d="M141.31,221.69c-14.96,8.66-29.6,17.81-41.38,30.73c-8.03,8.81-15.87,18.46-11.4,31.26
			c4.3,12.31,15.87,15.55,27.41,17.41c28.89,4.65,57.15-0.01,85.03-7.04c43.39-10.93,84.69-26.89,121.13-53.68
			c9.7-7.13,18.65-15.14,24.45-25.95c7.59-14.16,3.35-26.2-11.41-32.73c-12.29-5.44-25.4-5.55-38.49-5.56
			c-1.51,2.82-1.48,5.79-0.86,8.82c7.84-0.26,15.58,0.35,22.98,3.14c10.48,3.95,12.57,9.83,6.84,19.37
			c-5.29,8.79-13.1,15.16-21.3,20.93c-37.68,26.5-79.7,42.43-124.79,50.54c-19.71,3.54-39.59,6.68-59.55,2.14
			c-16.15-3.68-18.84-12.05-8.14-24.88c9-10.8,20.15-19.08,32.39-25.91c0.83-1.85,0.57-3.34,0.21-4.8
			C143.13,222.23,142.38,222.27,141.31,221.69z"/>
	</g>
</g>
</svg>
